<svg xmlns="http://www.w3.org/2000/svg" width="106" height="20" fill="none" viewBox="0 0 106 20"><rect width="106" height="20" fill="#fff"/><rect width="106" height="20" fill="#2F80ED" rx="2"/><ellipse cx="99.86" cy="4" fill="#6FCF97" rx="2.019" ry="2"/><rect width="79.752" height="18.889" x="26.248" fill="#2F80ED" rx="2"/><ellipse cx="101.38" cy="3.778" fill="#6FCF97" rx="1.519" ry="1.889"/><ellipse cx="101.38" cy="9.444" fill="#fff" rx="1.519" ry="1.889"/><ellipse cx="101.38" cy="15.111" fill="#6FCF97" rx="1.519" ry="1.889"/><rect width="5.048" height="5.556" x="84.8" y="2.222" fill="#fff" rx="1"/><rect width="3.029" height="3.333" x="85.809" y="5.556" fill="#fff" rx="1"/><rect width="5.048" height="5.556" x="78.743" y="2.222" fill="#fff" rx="1"/><rect width="3.029" height="3.333" x="79.752" y="5.556" fill="#fff" rx="1"/><rect width="5.048" height="5.556" x="72.686" y="2.222" fill="#fff" rx="1"/><rect width="3.029" height="3.333" x="73.695" y="5.556" fill="#fff" rx="1"/><rect width="5.048" height="5.556" x="66.629" y="2.222" fill="#fff" rx="1"/><rect width="3.029" height="3.333" x="67.638" y="5.556" fill="#fff" rx="1"/><rect width="5.048" height="5.556" x="84.8" y="11.111" fill="#fff" rx="1"/><rect width="3.029" height="3.333" x="85.809" y="14.444" fill="#fff" rx="1"/><rect width="5.048" height="5.556" x="78.743" y="11.111" fill="#fff" rx="1"/><rect width="3.029" height="3.333" x="79.752" y="14.444" fill="#fff" rx="1"/><rect width="5.048" height="5.556" x="72.686" y="11.111" fill="#fff" rx="1"/><rect width="3.029" height="3.333" x="73.695" y="14.444" fill="#fff" rx="1"/><rect width="5.048" height="5.556" x="66.629" y="11.111" fill="#fff" rx="1"/><rect width="3.029" height="3.333" x="67.638" y="14.444" fill="#fff" rx="1"/><rect width="5.048" height="5.556" x="57.543" y="2.222" fill="#fff" rx="1"/><rect width="3.029" height="3.333" x="58.552" y="5.556" fill="#fff" rx="1"/><rect width="5.048" height="5.556" x="51.486" y="2.222" fill="#fff" rx="1"/><rect width="3.029" height="3.333" x="52.495" y="5.556" fill="#fff" rx="1"/><rect width="5.048" height="5.556" x="45.429" y="2.222" fill="#fff" rx="1"/><rect width="3.029" height="3.333" x="46.438" y="5.556" fill="#fff" rx="1"/><rect width="5.048" height="5.556" x="39.371" y="2.222" fill="#fff" rx="1"/><rect width="3.029" height="3.333" x="40.381" y="5.556" fill="#fff" rx="1"/><rect width="5.048" height="5.556" x="57.543" y="11.111" fill="#fff" rx="1"/><rect width="3.029" height="3.333" x="58.552" y="14.444" fill="#fff" rx="1"/><rect width="5.048" height="5.556" x="51.486" y="11.111" fill="#fff" rx="1"/><rect width="3.029" height="3.333" x="52.495" y="14.444" fill="#fff" rx="1"/><rect width="5.048" height="5.556" x="45.429" y="11.111" fill="#fff" rx="1"/><rect width="3.029" height="3.333" x="46.438" y="14.444" fill="#fff" rx="1"/><rect width="5.048" height="5.556" x="39.371" y="11.111" fill="#fff" rx="1"/><rect width="3.029" height="3.333" x="40.381" y="14.444" fill="#fff" rx="1"/></svg>