<svg xmlns="http://www.w3.org/2000/svg" xmlns:cc="http://web.resource.org/cc/" xmlns:svg="http://www.w3.org/2000/svg" id="svg2" width="408" height="41" version="1.0"><metadata id="metadata7"/><g id="layer1" transform="translate(21.124908,-1018.9872)" style="display:inline"><rect style="color:#000;fill:#b3b3b3;fill-opacity:0;fill-rule:nonzero;stroke:#000;stroke-width:1;stroke-linecap:butt;stroke-linejoin:miter;marker:none;marker-start:none;marker-mid:none;marker-end:none;stroke-miterlimit:4;stroke-dasharray:none;stroke-dashoffset:0;stroke-opacity:1;visibility:visible;display:inline;overflow:visible;enable-background:accumulate" id="rect2160" width="40" height="40" x="-20.625" y="1019.487"/><text style="font-size:25.22813034px;font-style:normal;font-weight:400;text-align:center;text-anchor:middle;fill:#000;fill-opacity:1;stroke:none;stroke-width:1px;stroke-linecap:butt;stroke-linejoin:miter;stroke-opacity:1;display:inline;font-family:Bitstream Vera Sans" id="text4108" x="-.735" y="1060.759" transform="scale(1.0114576,0.9886722)" xml:space="preserve"><tspan id="tspan4110" x="-.735" y="1060.759">12</tspan></text><path style="fill:none;fill-rule:evenodd;stroke:#000;stroke-width:1;stroke-linecap:butt;stroke-linejoin:miter;stroke-miterlimit:4;stroke-dasharray:none;stroke-opacity:1" id="path5097" d="M 38.337482,1039.4872 C 98.000984,1039.4872 98.000984,1039.4872 98.000984,1039.4872"/><path style="color:#000;fill:#000;fill-opacity:1;fill-rule:nonzero;stroke:#000;stroke-width:.99120814;stroke-linecap:butt;stroke-linejoin:miter;marker:none;marker-start:none;marker-mid:none;marker-end:none;stroke-miterlimit:4;stroke-dasharray:none;stroke-dashoffset:0;stroke-opacity:1;visibility:visible;display:inline;overflow:visible;enable-background:accumulate" id="path5099" d="M 98.676487,1039.4872 C 98.676487,1039.4872 95.287958,1040.4023 91.423343,1042.3636 C 87.558729,1044.3252 79.667695,1049.1349 79.667695,1049.1349 L 84.476723,1039.4872 L 79.667695,1029.8395 C 79.667695,1029.8395 87.558729,1034.6493 91.423343,1036.6109 C 95.287958,1038.5722 98.676487,1039.4872 98.676487,1039.4872 z"/><rect style="color:#000;fill:#b3b3b3;fill-opacity:0;fill-rule:nonzero;stroke:#000;stroke-width:1;stroke-linecap:butt;stroke-linejoin:miter;marker:none;marker-start:none;marker-mid:none;marker-end:none;stroke-miterlimit:4;stroke-dasharray:none;stroke-dashoffset:0;stroke-opacity:1;visibility:visible;display:inline;overflow:visible;enable-background:accumulate" id="rect5282" width="40" height="40" x="19.375" y="1019.487"/><rect style="color:#000;fill:#b3b3b3;fill-opacity:0;fill-rule:nonzero;stroke:#000;stroke-width:1;stroke-linecap:butt;stroke-linejoin:miter;marker:none;marker-start:none;marker-mid:none;marker-end:none;stroke-miterlimit:4;stroke-dasharray:none;stroke-dashoffset:0;stroke-opacity:1;visibility:visible;display:inline;overflow:visible;enable-background:accumulate" id="rect9262" width="40" height="40" x="100.375" y="1019.487"/><text style="font-size:25.22813034px;font-style:normal;font-weight:400;text-align:center;text-anchor:middle;fill:#000;fill-opacity:1;stroke:none;stroke-width:1px;stroke-linecap:butt;stroke-linejoin:miter;stroke-opacity:1;display:inline;font-family:Bitstream Vera Sans" id="text9264" x="118.894" y="1060.759" transform="scale(1.0114576,0.9886722)" xml:space="preserve"><tspan id="tspan9266" x="118.894" y="1060.759">99</tspan></text><path style="fill:none;fill-rule:evenodd;stroke:#000;stroke-width:1;stroke-linecap:butt;stroke-linejoin:miter;stroke-miterlimit:4;stroke-dasharray:none;stroke-opacity:1;display:inline" id="path9268" d="M 159.33748,1039.4872 C 219.00098,1039.4872 219.00098,1039.4872 219.00098,1039.4872"/><path style="color:#000;fill:#000;fill-opacity:1;fill-rule:nonzero;stroke:#000;stroke-width:.99120814;stroke-linecap:butt;stroke-linejoin:miter;marker:none;marker-start:none;marker-mid:none;marker-end:none;stroke-miterlimit:4;stroke-dasharray:none;stroke-dashoffset:0;stroke-opacity:1;visibility:visible;display:inline;overflow:visible;enable-background:accumulate" id="path9270" d="M 221.6762,1039.4872 C 221.6762,1039.4872 218.28767,1040.4023 214.42305,1042.3636 C 210.55844,1044.3252 202.66741,1049.1349 202.66741,1049.1349 L 207.47643,1039.4872 L 202.66741,1029.8395 C 202.66741,1029.8395 210.55844,1034.6493 214.42305,1036.6109 C 218.28767,1038.5722 221.6762,1039.4872 221.6762,1039.4872 z"/><rect style="color:#000;fill:#b3b3b3;fill-opacity:0;fill-rule:nonzero;stroke:#000;stroke-width:1;stroke-linecap:butt;stroke-linejoin:miter;marker:none;marker-start:none;marker-mid:none;marker-end:none;stroke-miterlimit:4;stroke-dasharray:none;stroke-dashoffset:0;stroke-opacity:1;visibility:visible;display:inline;overflow:visible;enable-background:accumulate" id="rect9272" width="40" height="40" x="140.375" y="1019.487"/><rect style="color:#000;fill:#b3b3b3;fill-opacity:0;fill-rule:nonzero;stroke:#000;stroke-width:1;stroke-linecap:butt;stroke-linejoin:miter;marker:none;marker-start:none;marker-mid:none;marker-end:none;stroke-miterlimit:4;stroke-dasharray:none;stroke-dashoffset:0;stroke-opacity:1;visibility:visible;display:inline;overflow:visible;enable-background:accumulate" id="rect9276" width="40" height="40" x="223.375" y="1019.487"/><text style="font-size:25.22813034px;font-style:normal;font-weight:400;text-align:center;text-anchor:middle;fill:#000;fill-opacity:1;stroke:none;stroke-width:1px;stroke-linecap:butt;stroke-linejoin:miter;stroke-opacity:1;display:inline;font-family:Bitstream Vera Sans" id="text9278" x="240.501" y="1060.759" transform="scale(1.0114576,0.9886722)" xml:space="preserve"><tspan id="tspan9280" x="240.501" y="1060.759">37</tspan></text><rect style="color:#000;fill:#b3b3b3;fill-opacity:0;fill-rule:nonzero;stroke:#000;stroke-width:1;stroke-linecap:butt;stroke-linejoin:miter;marker:none;marker-start:none;marker-mid:none;marker-end:none;stroke-miterlimit:4;stroke-dasharray:none;stroke-dashoffset:0;stroke-opacity:1;visibility:visible;display:inline;overflow:visible;enable-background:accumulate" id="rect9286" width="40" height="40" x="263.375" y="1019.487"/><path style="fill:none;fill-rule:evenodd;stroke:#000;stroke-width:1;stroke-linecap:butt;stroke-linejoin:miter;stroke-miterlimit:4;stroke-dasharray:none;stroke-opacity:1;display:inline" id="path2198" d="M 282.33711,1039.4872 C 342.00061,1039.4872 342.00061,1039.4872 342.00061,1039.4872"/><path style="color:#000;fill:#000;fill-opacity:1;fill-rule:nonzero;stroke:#000;stroke-width:.99120814;stroke-linecap:butt;stroke-linejoin:miter;marker:none;marker-start:none;marker-mid:none;marker-end:none;stroke-miterlimit:4;stroke-dasharray:none;stroke-dashoffset:0;stroke-opacity:1;visibility:visible;display:inline;overflow:visible;enable-background:accumulate" id="path2200" d="M 344.67583,1039.4872 C 344.67583,1039.4872 341.2873,1040.4023 337.42268,1042.3636 C 333.55807,1044.3252 325.66704,1049.1349 325.66704,1049.1349 L 330.47606,1039.4872 L 325.66704,1029.8395 C 325.66704,1029.8395 333.55807,1034.6493 337.42268,1036.6109 C 341.2873,1038.5722 344.67583,1039.4872 344.67583,1039.4872 z"/><g id="g2213"><rect id="rect2202" width="40" height="40" x="346.375" y="1019.487" style="color:#000;fill:#b3b3b3;fill-opacity:0;fill-rule:nonzero;stroke:#000;stroke-width:1;stroke-linecap:butt;stroke-linejoin:miter;marker:none;marker-start:none;marker-mid:none;marker-end:none;stroke-miterlimit:4;stroke-dasharray:none;stroke-dashoffset:0;stroke-opacity:1;visibility:visible;display:inline;overflow:visible;enable-background:accumulate"/><path id="path2209" d="M 346.37509,1019.4872 C 385.97307,1059.0851 386.14985,1059.2619 386.14985,1059.2619" style="fill:none;fill-rule:evenodd;stroke:#000;stroke-width:1px;stroke-linecap:butt;stroke-linejoin:miter;stroke-opacity:1"/><path id="path2211" d="M 386.37509,1019.4872 C 346.77711,1059.0851 346.60033,1059.2619 346.60033,1059.2619" style="fill:none;fill-rule:evenodd;stroke:#000;stroke-width:1px;stroke-linecap:butt;stroke-linejoin:miter;stroke-opacity:1;display:inline"/></g><path style="color:#000;fill:#000;fill-opacity:1;fill-rule:nonzero;stroke:#000;stroke-width:0;stroke-linecap:butt;stroke-linejoin:miter;marker:none;marker-start:none;marker-mid:none;marker-end:none;stroke-miterlimit:4;stroke-dasharray:none;stroke-dashoffset:0;stroke-opacity:1;visibility:visible;display:inline;overflow:visible;enable-background:accumulate" id="path6449" d="M 27 18.5 A 6 6 0 1 1 15,18.5 A 6 6 0 1 1 27 18.5 z" transform="matrix(1,0,0,-1,18.375092,1057.9872)"/><path style="color:#000;fill:#000;fill-opacity:1;fill-rule:nonzero;stroke:#000;stroke-width:0;stroke-linecap:butt;stroke-linejoin:miter;marker:none;marker-start:none;marker-mid:none;marker-end:none;stroke-miterlimit:4;stroke-dasharray:none;stroke-dashoffset:0;stroke-opacity:1;visibility:visible;display:inline;overflow:visible;enable-background:accumulate" id="path2339" d="M 27 18.5 A 6 6 0 1 1 15,18.5 A 6 6 0 1 1 27 18.5 z" transform="matrix(1,0,0,-1,139.37509,1057.9872)"/><path style="color:#000;fill:#000;fill-opacity:1;fill-rule:nonzero;stroke:#000;stroke-width:0;stroke-linecap:butt;stroke-linejoin:miter;marker:none;marker-start:none;marker-mid:none;marker-end:none;stroke-miterlimit:4;stroke-dasharray:none;stroke-dashoffset:0;stroke-opacity:1;visibility:visible;display:inline;overflow:visible;enable-background:accumulate" id="path2341" d="M 27 18.5 A 6 6 0 1 1 15,18.5 A 6 6 0 1 1 27 18.5 z" transform="matrix(1,0,0,-1,262.37509,1057.9872)"/></g></svg>